<?xml version="1.0" encoding="UTF-8" standalone="no"?>
<!-- Created with Inkscape (http://www.inkscape.org/) -->

<svg
   width="32"
   height="32"
   viewBox="0 0 8.4666669 8.4666669"
   version="1.1"
   id="svg1"
   xml:space="preserve"
   inkscape:version="1.3.2 (091e20e, 2023-11-25)"
   sodipodi:docname="fav.svg"
   inkscape:export-filename="fav.png"
   inkscape:export-xdpi="48"
   inkscape:export-ydpi="48"
   xmlns:inkscape="http://www.inkscape.org/namespaces/inkscape"
   xmlns:sodipodi="http://sodipodi.sourceforge.net/DTD/sodipodi-0.dtd"
   xmlns="http://www.w3.org/2000/svg"
   xmlns:svg="http://www.w3.org/2000/svg"><sodipodi:namedview
     id="namedview1"
     pagecolor="#ffffff"
     bordercolor="#000000"
     borderopacity="0.25"
     inkscape:showpageshadow="2"
     inkscape:pageopacity="0.0"
     inkscape:pagecheckerboard="0"
     inkscape:deskcolor="#d1d1d1"
     inkscape:document-units="mm"
     inkscape:zoom="27.784755"
     inkscape:cx="16.609828"
     inkscape:cy="13.784538"
     inkscape:window-width="3440"
     inkscape:window-height="1387"
     inkscape:window-x="0"
     inkscape:window-y="25"
     inkscape:window-maximized="0"
     inkscape:current-layer="layer1"
     inkscape:export-bgcolor="#ffffff00" /><defs
     id="defs1" /><g
     inkscape:label="Layer 1"
     inkscape:groupmode="layer"
     id="layer1"><g
       style="fill:currentColor"
       id="g1"
       transform="matrix(0.36811594,0,0,0.36811594,-0.18405795,-5.8393419e-4)"><path
         d="m 10.04,4.305 c 2.195,-0.667 4.615,-0.224 6.36,1.176 1.386,1.108 2.188,2.686 2.252,4.34 l 0.003,0.212 0.091,0.003 c 2.3,0.107 4.143,1.961 4.25,4.27 L 23,14.517 c 0,2.407 -1.885,4.372 -4.255,4.482 l -0.21,0.005 H 6.657 L 6.435,18.996 C 3.495,18.886 1.118,16.597 1.005,13.733 L 1,13.517 C 1,10.77 3.08,8.507 5.784,8.1 L 5.898,8.084 5.968,7.903 C 6.631,6.283 8.024,4.997 9.797,4.385 l 0.244,-0.08 z"
         id="path2"
         style="fill:#ffffff;fill-opacity:1;stroke:#00aad4;stroke-opacity:1" /></g><g
       style="fill:none;stroke:currentColor;stroke-width:2;stroke-linecap:round;stroke-linejoin:round"
       id="g4"
       transform="matrix(0.15654329,0,0,0.15654329,2.3548138,2.9688043)"><path
         id="path4"
         d="M 12,20 V 10 m 0,4 a 6,6 0 0 1 6,-6 h 3 v 1 a 6,6 0 0 1 -6,6 h -3 m 0,-5 A 6,6 0 0 0 6,4 H 3 v 2 a 6,6 0 0 0 6,6 h 3"
         style="stroke:#00aa44" /><ellipse
         style="fill:#00aa44;stroke:none;stroke-width:0.451447;stroke-opacity:1"
         id="path5"
         cx="94.970001"
         cy="-14.837544"
         rx="12.336408"
         ry="8.8348083"
         transform="matrix(0.29932113,0.28977607,0.33177299,-0.2519722,-16.218336,-23.469953)" /><ellipse
         style="fill:#00aa44;stroke:none;stroke-width:0.433807;stroke-opacity:1"
         id="ellipse5"
         cx="-35.046822"
         cy="112.33383"
         rx="12.087817"
         ry="8.3256369"
         transform="matrix(-0.35668791,0.2152604,0.1816548,0.37491977,-16.218336,-23.469953)" /></g></g></svg>
