<?xml version="1.0" encoding="UTF-8" standalone="no"?>
<svg
   width="35.722229"
   height="50.900352"
   viewBox="0 0 26.791422 38.175514"
   version="1.1"
   id="svg7"
   sodipodi:docname="University_of_Tokyo_logo,_basic,_vertical.svg"
   inkscape:version="1.3.2 (091e20e, 2023-11-25)"
   xmlns:inkscape="http://www.inkscape.org/namespaces/inkscape"
   xmlns:sodipodi="http://sodipodi.sourceforge.net/DTD/sodipodi-0.dtd"
   xmlns="http://www.w3.org/2000/svg"
   xmlns:svg="http://www.w3.org/2000/svg">
  <defs
     id="defs7" />
  <sodipodi:namedview
     id="namedview7"
     pagecolor="#ffffff"
     bordercolor="#000000"
     borderopacity="0.25"
     inkscape:showpageshadow="2"
     inkscape:pageopacity="0.0"
     inkscape:pagecheckerboard="0"
     inkscape:deskcolor="#d1d1d1"
     inkscape:zoom="17.299779"
     inkscape:cx="17.8615"
     inkscape:cy="26.011893"
     inkscape:window-width="3440"
     inkscape:window-height="1387"
     inkscape:window-x="0"
     inkscape:window-y="25"
     inkscape:window-maximized="1"
     inkscape:current-layer="svg7" />
  <path
     fill="#4081cc"
     d="m 26.791623,13.269667 a 0.513,0.513 0 0 0 -0.504,-0.503 0.407,0.407 0 0 0 -0.117,0.015 53.16,53.16 0 0 1 -13.805,1.024 c -1.46,-0.078 -2.895,0 -4.309,0.11 a 5.431,5.431 0 0 0 -3.375,1.516 5.4,5.4 0 0 0 -1.5,2.694 c -0.27,1.23 -0.078,2.504 0.442,3.64 a 6.746,6.746 0 0 0 2.316,2.755 c 1.09,0.73 2.29,1.304 3.547,1.687 0.79,0.238 1.496,0.383 2.332,0.488 0.012,-0.316 0.488,-0.808 0.504,-1.046 a 0.435,0.435 0 0 0 -0.398,-0.461 c -1.301,0.046 -2.254,0.02 -3.473,-0.438 a 8.375,8.375 0 0 1 -3.277,-2.238 c -0.43,-0.473 -0.79,-1 -1.016,-1.598 a 4.658,4.658 0 0 1 -0.29,-1.89 c 0.126,-2.149 1.794,-3.973 3.93,-4.282 a 4.633,4.633 0 0 1 3.364,0.84 c 0.5,0.367 0.93,0.84 1.246,1.375 0.355,0.61 0.656,1.25 0.863,1.922 0.43,1.406 0.469,2.941 0.285,4.387 a 11.957,11.957 0 0 1 -0.382,1.82 c -0.102,0.34 -0.22,0.676 -0.356,1.004 a 0.542,0.542 0 0 0 -0.035,0.195 c 0,0.27 0.219,0.492 0.488,0.5 0.031,0 0.09,0.004 0.125,0.004 a 13.31,13.31 0 0 0 8.617,-3.148 c 0.004,0 0.008,-0.004 0.008,-0.004 a 0.503,0.503 0 0 0 0.153,-0.356 0.547,0.547 0 0 0 -0.082,-0.273 c -0.875,-1.516 -2.774,-3.7 -2.774,-3.7 0,0 2.149,1.934 3.692,2.774 a 0.573,0.573 0 0 0 0.277,0.082 c 0.14,0 0.266,-0.055 0.356,-0.144 0.004,-0.004 0.008,-0.012 0.011,-0.016 a 13.347,13.347 0 0 0 3.137,-8.613 v -0.121"
     id="path1" />
  <path
     fill="#fab20a"
     d="m 2.541623,19.402667 a 10.748,10.748 0 0 1 -0.934,-3.73 c -0.012,-0.176 -0.008,-0.41 -0.008,-0.582 a 0.435,0.435 0 0 0 -0.433,-0.434 c -0.23899997,0 -0.74999997,0.438 -1.10999997,0.438 a 13.473,13.473 0 0 0 3.62499997,7.57 c 0.969,1.008 2.164,1.79 3.528,2.16 a 4.889,4.889 0 0 0 3.488,-0.37 4.947,4.947 0 0 0 1.387,-1.04 c 0.418,-0.457 0.742,-1.008 1.043,-1.543 0.312,-0.574 0.585,-1.164 0.832,-1.765 0.261,-0.641 0.48,-1.301 0.765,-1.93 1.09,-2.383 2.625,-4.563 4.7,-6.18 a 15.702,15.702 0 0 1 3.296,-1.984 16.95,16.95 0 0 1 1.836,-0.6799998 c 0.301,-0.09 0.606,-0.168 0.91,-0.242 a 0.506,0.506 0 0 0 0.332,-0.64 13.49,13.49 0 0 0 -3.52,-5.036 c -0.01,-0.012 -0.023,-0.02 -0.034,-0.031 a 0.5,0.5 0 0 0 -0.328,-0.125 c -0.137,0 -0.254,0.082 -0.36,0.156 -2.472,1.719 -4.293,4.582 -4.293,4.582 0,0 0.965,-2.45 3.02,-5.473 a 0.507,0.507 0 0 0 -0.137,-0.672 c -0.016,-0.007 -0.035,-0.019 -0.05,-0.027 a 13.334,13.334 0 0 0 -4.107,-1.565 13.419,13.419 0 0 0 -3.21,-0.247 h -0.024 a 0.506,0.506 0 0 0 -0.484,0.5 c -0.137,3.52 0.55,9.5699998 0.55,9.5699998 0,0 -1.225,-5.9649998 -2.436,-9.2729998 a 0.51,0.51 0 0 0 -0.574,-0.34 c -0.004,0 -0.008,0.004 -0.012,0.004 a 13.388,13.388 0 0 0 -6.434,3.988 c -0.007,0.008 -0.011,0.016 -0.019,0.02 a 0.5,0.5 0 0 0 -0.133,0.34 c 0,0.136 0.047,0.277 0.149,0.355 2.64,2.012 4.586,4.297 4.586,4.297 0,0 -2.497,-1.848 -5.471,-3.024 -0.085,-0.031 -0.167,-0.07 -0.26,-0.07 a 0.498,0.498 0 0 0 -0.415,0.219 c 0,0.004 -0.004,0.004 -0.004,0.008 a 13.021,13.021 0 0 0 -1.07799997,2.303 13.463,13.463 0 0 0 -0.707,3.1599998 c -0.027,0.274 -0.043,0.555 0.238,0.707 0.11,0.063 0.235,0.075 0.356,0.051 0.183,-0.039 0.367,-0.074 0.54999997,-0.105 a 12.682,12.682 0 0 1 2.141,-0.16 c 1.438,0.015 2.867,0.273 4.211,0.777 1.242,0.46 2.375,1.191 3.234,2.21 1.618,1.923 2.48,5.223 0.618,7.274 -0.856,0.942 -2.114,1.399 -3.375,1.285 -0.649,-0.062 -1.223,-0.289 -1.79,-0.593 a 7.49,7.49 0 0 1 -1.445,-0.996 c -0.957,-0.848 -1.691,-1.954 -2.21,-3.118"
     id="path2" />
  <g
     fill="#231f20"
     id="g7"
     transform="translate(-3.7697086e-4,-3.3279698e-4)">
    <path
       d="m 10.495,33.84 c 0,-0.081 0.457,-0.019 0.672,0.048 0.172,0.055 0.449,0.133 0.738,0.355 0.164,0.13 0.367,0.356 0.367,0.63 0,0.269 -0.164,0.405 -0.363,0.405 A 0.59,0.59 0 0 1 11.593,35.103 C 11.495,35.005 11.421,34.806 11.136,34.478 10.811,34.11 10.495,33.896 10.495,33.841 m -0.309,-2.664 v -0.516 l 0.23,-0.074 a 0.063,0.063 0 0 0 0.048,-0.062 0.063,0.063 0 0 0 -0.055,-0.063 L 9.366,30.306 v 0.87 H 7.085 l 0.074,0.157 h 5.379 c 0,0 0.066,-0.094 0,-0.156 -0.067,-0.063 -0.637,-0.418 -0.637,-0.418 l -0.379,0.418 z M 9.257,34.048 8.331,33.724 c -0.344,0.57 -0.66,1.027 -1.156,1.449 a 0.048,0.048 0 0 0 -0.02,0.039 c 0,0.023 0.023,0.047 0.05,0.047 0.005,0 0.013,0 0.016,-0.004 H 7.225 C 7.663,35.095 8.3,34.689 9.054,34.177 H 9.237 A 0.068,0.068 0 0 0 9.304,34.11 0.063,0.063 0 0 0 9.257,34.048 m 10.289,-2.125 c -0.082,-0.082 -0.703,-0.465 -0.703,-0.465 l -0.387,0.465 H 17.147 V 30.66 l 0.23,-0.074 H 17.374 A 0.063,0.063 0 0 0 17.37,30.461 l -1.086,-0.156 v 1.617 H 14.19 l 0.07,0.156 h 2.024 c -0.012,0.774 -0.192,1.371 -0.457,1.813 -0.328,0.55 -0.836,1.062 -1.645,1.508 h -0.004 c 0,0 -0.004,0.004 -0.008,0.004 a 0.056,0.056 0 0 0 -0.02,0.043 0.05,0.05 0 0 0 0.048,0.046 c 0.008,0 0.011,0 0.015,-0.004 0.98,-0.277 1.766,-0.722 2.176,-1.257 a 3.21,3.21 0 0 0 0.664,-1.649 c 0.07,0.598 0.223,1.078 0.445,1.434 a 3.752,3.752 0 0 0 1.344,1.406 c 0.008,0 0.016,0.004 0.028,0.004 a 0.064,0.064 0 0 0 0.035,-0.012 0.094,0.094 0 0 0 0.027,-0.046 c 0.043,-0.239 0.352,-0.446 0.586,-0.528 -0.758,-0.422 -1.312,-0.926 -1.613,-1.308 a 3.936,3.936 0 0 1 -0.746,-1.453 h 2.386 c 0,0 0.086,-0.075 0,-0.157 m 2.54,-1.413 a 0.069,0.069 0 0 0 0.011,0.058 c 0.067,0.106 0.243,0.364 0.34,0.532 0.121,0.21 0.133,0.285 0.207,0.363 0.067,0.066 0.293,0.117 0.43,0.023 0.14,-0.093 0.156,-0.285 0.098,-0.433 a 1.005,1.005 0 0 0 -0.496,-0.469 c -0.227,-0.086 -0.551,-0.144 -0.59,-0.074 m 1.121,-0.179 c -0.012,0.015 -0.016,0.034 0,0.062 0.074,0.093 0.23,0.293 0.351,0.488 0.153,0.246 0.172,0.387 0.258,0.473 0.133,0.129 0.367,0.105 0.446,0.027 A 0.49,0.49 0 0 0 24.37,30.923 C 24.304,30.696 24.093,30.497 23.792,30.396 23.53,30.306 23.257,30.278 23.206,30.329 M 22.01,31.24 c 0.122,0.023 0.208,0.507 0.083,0.937 -0.106,0.355 -0.348,0.515 -0.614,0.453 -0.21,-0.047 -0.281,-0.234 -0.219,-0.45 0.06,-0.187 0.231,-0.327 0.352,-0.448 0.129,-0.122 0.277,-0.329 0.313,-0.426 0.011,-0.04 0.035,-0.074 0.085,-0.067 m 2.301,2.477 v 1.344 c 0,0.324 -0.633,0.425 -0.824,0.425 -0.101,0 -0.098,-0.093 -0.14,-0.18 -0.036,-0.07 -0.149,-0.167 -0.782,-0.214 l -0.054,-0.125 h 1.003 v -1.25 h -2.257 l -0.07,-0.156 h 2.327 v -0.61 l 0.957,0.106 c 0.09,0.047 -0.019,0.199 -0.16,0.258 v 0.246 h 1.223 l 0.434,-0.465 c 0,0 0.52,0.387 0.601,0.465 0.082,0.078 0,0.156 0,0.156 z m 0,0"
       id="path3" />
    <path
       d="m 26.733,31.77 a 0.073,0.073 0 0 0 -0.035,-0.058 l -0.004,-0.004 -0.832,-0.414 -0.23,0.332 -0.797,-0.004 0.925,-0.82 0.262,-0.028 c 0.035,0 0.063,-0.03 0.063,-0.066 a 0.07,0.07 0 0 0 -0.04,-0.063 l -0.957,-0.34 c -0.152,0.383 -0.335,0.848 -0.558,1.317 h -2.442 l -0.008,0.156 3.598,0.012 -0.238,0.758 0.098,0.027 0.914,-0.723 0.222,-0.02 c 0.031,-0.003 0.059,-0.03 0.059,-0.062"
       id="path4" />
    <path
       d="m 25.69,32.548 0.004,-0.004 -0.797,-0.52 -0.234,0.25 h -2.418 l 0.07,0.157 h 2.305 l -0.445,0.71 c 0.078,0.016 0.011,0.149 0.136,0.172 l 1.102,-0.664 0.234,0.016 h 0.008 a 0.066,0.066 0 0 0 0.067,-0.066 c 0,-0.024 -0.012,-0.04 -0.031,-0.051 M 4.112,34.247 C 3.722,34.075 3.412,33.853 3.19,33.591 h 1.004 v 0.234 l 0.774,-0.113 v -1.605 l 0.18,-0.086 a 0.076,0.076 0 0 0 0.05,-0.075 0.08,0.08 0 0 0 -0.043,-0.07 L 4.405,31.45 4.151,31.775 H 3.143 V 31.2 h 2.328 c 0,0 0.075,-0.09 0,-0.16 -0.078,-0.074 -0.59,-0.37 -0.59,-0.37 L 4.55,31.04 H 3.143 v -0.379 l 0.23,-0.074 H 3.37 C 3.397,30.579 3.42,30.556 3.42,30.525 A 0.063,0.063 0 0 0 3.366,30.462 L 2.342,30.306 v 0.734 h -2.32 l 0.067,0.16 h 2.253 v 0.575 H 1.288 L 0.549,31.489 v 2.336 l 0.774,-0.113 v -0.121 h 0.789 c -0.61,0.75 -1.324,1.215 -2.055,1.629 v 0.004 c -0.015,0.004 -0.023,0.023 -0.023,0.039 0,0.027 0.02,0.05 0.047,0.05 0.004,0 0.011,0 0.015,-0.003 0.66,-0.215 1.426,-0.422 2.246,-1.078 v 1.257 L 3.143,35.38 v -1.566 c 0.121,0.254 0.258,0.418 0.414,0.59 0.352,0.406 0.836,0.66 1.47,0.894 0.1,-0.316 0.237,-0.559 0.476,-0.637 L 5.542,34.603 C 5.038,34.505 4.557,34.463 4.112,34.247 M 2.342,33.435 H 1.324 v -0.703 h 1.02 z m 0,-0.86 H 1.324 v -0.644 h 1.02 z m 0.801,-0.644 h 1.051 v 0.644 h -1.05 z m 0,0.8 h 1.051 v 0.7 h -1.05 z m 8.875,-0.749 -0.773,-0.442 -0.254,0.324 H 8.608 l -0.77,-0.28 v 2.03 l 0.801,-0.117 v -0.133 h 0.774 v 1.602 h -1 l 0.05,0.125 c 0.633,0.047 0.747,0.144 0.782,0.215 0.043,0.086 0.043,0.18 0.14,0.18 0.192,0 0.825,-0.102 0.825,-0.426 v -1.696 h 0.824 v 0.227 l 0.797,-0.117 v -1.262 l 0.18,-0.082 a 0.082,0.082 0 0 0 0.05,-0.078 0.078,0.078 0 0 0 -0.043,-0.07 m -0.984,1.222 H 8.639 v -1.183 h 2.395 z m -8.527,3.883 c 0.008,0 0.011,-0.004 0.011,-0.016 v -0.043 c 0,-0.293 0,-0.347 -0.004,-0.41 C 2.51,36.552 2.494,36.521 2.436,36.508 A 0.351,0.351 0 0 0 2.362,36.501 c -0.02,0 -0.031,-0.004 -0.031,-0.02 0,-0.011 0.015,-0.015 0.039,-0.015 h 0.5 c 0.027,0 0.039,0.004 0.039,0.015 0,0.016 -0.012,0.02 -0.035,0.02 -0.012,0 -0.027,0.004 -0.051,0.008 -0.05,0.008 -0.066,0.039 -0.07,0.11 -0.004,0.062 -0.004,1.09 0.008,1.171 0.004,0.055 0.015,0.098 0.07,0.106 a 0.742,0.742 0 0 0 0.094,0.008 c 0.023,0 0.03,0.008 0.03,0.015 0,0.016 -0.015,0.02 -0.038,0.02 h -0.52 c -0.023,0 -0.039,-0.004 -0.039,-0.02 0,-0.008 0.008,-0.015 0.031,-0.015 0.028,0 0.051,-0.004 0.067,-0.008 0.035,-0.008 0.047,-0.051 0.054,-0.106 0.008,-0.082 0.008,-0.238 0.008,-0.414 v -0.172 c 0,-0.012 -0.004,-0.015 -0.011,-0.015 H 1.8 c -0.004,0 -0.012,0.004 -0.012,0.015 v 0.172 c 0,0.176 0,0.332 0.012,0.414 0.004,0.055 0.015,0.098 0.07,0.106 a 0.74,0.74 0 0 0 0.094,0.008 c 0.023,0 0.031,0.008 0.031,0.015 0,0.016 -0.016,0.02 -0.04,0.02 H 1.436 c -0.023,0 -0.039,-0.004 -0.039,-0.02 0,-0.008 0.008,-0.015 0.031,-0.015 0.028,0 0.051,-0.004 0.067,-0.008 C 1.53,37.888 1.542,37.845 1.55,37.79 1.558,37.708 1.558,36.68 1.554,36.618 1.55,36.552 1.534,36.521 1.475,36.508 A 0.351,0.351 0 0 0 1.401,36.501 c -0.02,0 -0.031,-0.004 -0.031,-0.02 0,-0.011 0.012,-0.015 0.04,-0.015 h 0.5 c 0.026,0 0.038,0.004 0.038,0.015 0,0.016 -0.011,0.02 -0.031,0.02 -0.016,0 -0.035,0.004 -0.055,0.008 -0.05,0.008 -0.066,0.039 -0.07,0.11 -0.004,0.062 -0.004,0.116 -0.004,0.41 v 0.042 c 0,0.012 0.008,0.016 0.012,0.016 z M 4.768,36.18 C 4.764,36.09 4.745,36.048 4.663,36.032 4.643,36.024 4.6,36.024 4.565,36.024 c -0.023,0 -0.039,-0.008 -0.039,-0.023 0,-0.02 0.016,-0.023 0.055,-0.023 h 0.664 c 0.035,0 0.05,0.004 0.05,0.023 0,0.016 -0.011,0.023 -0.038,0.023 -0.027,0 -0.04,0 -0.07,0.008 -0.067,0.012 -0.087,0.055 -0.09,0.149 -0.009,0.082 -0.009,0.914 -0.009,0.914 0,0.375 0.075,0.535 0.196,0.64 0.11,0.094 0.222,0.106 0.308,0.106 0.11,0 0.243,-0.04 0.34,-0.14 0.137,-0.145 0.145,-0.38 0.145,-0.645 0,0 0,-0.793 -0.008,-0.875 -0.004,-0.09 -0.024,-0.133 -0.106,-0.149 -0.02,-0.008 -0.062,-0.008 -0.09,-0.008 -0.027,0 -0.039,-0.008 -0.039,-0.023 0,-0.02 0.016,-0.023 0.051,-0.023 h 0.566 c 0.036,0 0.051,0.004 0.051,0.023 0,0.016 -0.015,0.023 -0.043,0.023 -0.027,0 -0.043,0 -0.074,0.008 -0.066,0.012 -0.086,0.055 -0.09,0.149 -0.004,0.082 -0.004,0.828 -0.004,0.828 0,0.289 -0.027,0.594 -0.238,0.781 a 0.699,0.699 0 0 1 -0.512,0.188 c -0.129,0 -0.367,-0.008 -0.547,-0.18 -0.125,-0.121 -0.218,-0.313 -0.218,-0.688 0,0 0,-0.847 -0.008,-0.93 m 8.582,0.438 c -0.004,-0.066 -0.02,-0.101 -0.062,-0.11 a 0.336,0.336 0 0 0 -0.067,-0.007 c -0.019,0 -0.027,-0.004 -0.027,-0.02 0,-0.011 0.012,-0.015 0.043,-0.015 h 0.465 c 0.027,0 0.04,0.004 0.04,0.015 0,0.016 -0.013,0.02 -0.028,0.02 -0.02,0 -0.035,0.004 -0.055,0.008 -0.05,0.008 -0.066,0.039 -0.07,0.11 -0.004,0.062 -0.004,1.097 0.004,1.183 0.004,0.05 0.02,0.086 0.074,0.094 a 0.742,0.742 0 0 0 0.094,0.008 c 0.02,0 0.03,0.008 0.03,0.015 0,0.016 -0.015,0.02 -0.038,0.02 h -0.52 c -0.023,0 -0.039,-0.004 -0.039,-0.02 0,-0.008 0.008,-0.015 0.031,-0.015 0.028,0 0.051,-0.004 0.067,-0.008 0.039,-0.008 0.047,-0.04 0.054,-0.098 0.008,-0.082 0.008,-1.117 0.004,-1.18 m 2.426,0.817 c 0,-0.106 -0.02,-0.149 -0.043,-0.203 C 15.721,37.2 15.471,36.771 15.409,36.669 A 0.488,0.488 0 0 0 15.28,36.524 0.2,0.2 0 0 0 15.202,36.501 c -0.016,0 -0.027,-0.004 -0.027,-0.02 0,-0.011 0.011,-0.015 0.035,-0.015 h 0.43 c 0.019,0 0.03,0.004 0.03,0.016 0,0.015 -0.015,0.015 -0.042,0.023 -0.016,0.004 -0.024,0.02 -0.024,0.035 0,0.016 0.008,0.04 0.02,0.067 0.027,0.058 0.285,0.527 0.316,0.582 0.02,-0.047 0.25,-0.477 0.277,-0.536 a 0.263,0.263 0 0 0 0.028,-0.101 c 0,-0.02 -0.008,-0.043 -0.04,-0.047 -0.019,-0.008 -0.034,-0.008 -0.034,-0.023 0,-0.012 0.008,-0.016 0.03,-0.016 h 0.376 c 0.02,0 0.031,0.004 0.031,0.016 0,0.015 -0.016,0.02 -0.035,0.02 a 0.192,0.192 0 0 0 -0.082,0.023 c -0.04,0.019 -0.059,0.043 -0.098,0.093 -0.062,0.078 -0.32,0.54 -0.355,0.621 -0.028,0.07 -0.028,0.133 -0.028,0.196 0,0 0,0.273 0.004,0.355 0.004,0.055 0.024,0.098 0.078,0.106 a 0.746,0.746 0 0 0 0.09,0.008 c 0.024,0 0.032,0.008 0.032,0.015 0,0.016 -0.016,0.02 -0.04,0.02 h -0.515 c -0.024,0 -0.04,-0.004 -0.04,-0.02 0,-0.008 0.009,-0.015 0.028,-0.015 0.027,0 0.05,-0.004 0.066,-0.008 0.04,-0.008 0.055,-0.051 0.059,-0.106 0.004,-0.082 0.004,-0.355 0.004,-0.355 m 1.144,-0.231 c 0,-0.336 0.208,-0.765 0.766,-0.765 0.461,0 0.746,0.28 0.746,0.73 0,0.445 -0.296,0.797 -0.765,0.797 -0.531,0 -0.746,-0.418 -0.746,-0.762 m 1.254,0.035 c 0,-0.437 -0.254,-0.707 -0.559,-0.707 -0.215,0 -0.441,0.125 -0.441,0.61 0,0.406 0.226,0.726 0.586,0.726 0.128,0 0.414,-0.066 0.414,-0.629 m 2.98,-0.035 c 0,-0.336 0.211,-0.765 0.766,-0.765 0.46,0 0.75,0.28 0.75,0.73 0,0.445 -0.297,0.797 -0.77,0.797 -0.531,0 -0.746,-0.418 -0.746,-0.762 m 1.254,0.035 c 0,-0.437 -0.254,-0.707 -0.559,-0.707 -0.21,0 -0.437,0.125 -0.437,0.61 0,0.406 0.226,0.726 0.582,0.726 0.129,0 0.414,-0.066 0.414,-0.629 m 1.601,-0.738 a 0.2,0.2 0 0 1 0.079,0.023 c 0.035,0.024 0.082,0.07 0.129,0.145 0.066,0.102 0.312,0.531 0.324,0.562 a 0.383,0.383 0 0 1 0.043,0.204 c 0,0 0,0.273 -0.004,0.355 -0.004,0.055 -0.02,0.098 -0.059,0.106 a 0.274,0.274 0 0 1 -0.066,0.008 c -0.02,0 -0.028,0.008 -0.028,0.015 0,0.016 0.016,0.02 0.04,0.02 h 0.515 c 0.024,0 0.04,-0.004 0.04,-0.02 0,-0.008 -0.009,-0.015 -0.032,-0.015 a 0.68,0.68 0 0 1 -0.09,-0.008 c -0.054,-0.008 -0.074,-0.051 -0.078,-0.106 -0.004,-0.082 -0.004,-0.355 -0.004,-0.355 0,-0.063 0,-0.125 0.027,-0.196 0.036,-0.082 0.293,-0.543 0.356,-0.62 0.039,-0.052 0.059,-0.075 0.098,-0.094 a 0.204,0.204 0 0 1 0.082,-0.024 c 0.02,0 0.035,-0.004 0.035,-0.02 0,-0.011 -0.012,-0.015 -0.031,-0.015 h -0.375 c -0.02,0 -0.032,0.004 -0.032,0.016 0,0.015 0.016,0.02 0.036,0.023 0.03,0.004 0.039,0.027 0.039,0.047 a 0.267,0.267 0 0 1 -0.028,0.101 c -0.027,0.06 -0.257,0.489 -0.277,0.536 -0.031,-0.055 -0.29,-0.524 -0.313,-0.582 -0.015,-0.028 -0.023,-0.051 -0.023,-0.067 0,-0.016 0.008,-0.031 0.023,-0.035 0.028,-0.008 0.043,-0.008 0.043,-0.023 0,-0.012 -0.011,-0.016 -0.027,-0.016 h -0.851 c -0.02,0 -0.028,0.004 -0.028,0.016 0,0.015 0.004,0.02 0.024,0.023 0.015,0.004 0.023,0.016 0.023,0.035 0,0.035 -0.04,0.082 -0.09,0.149 -0.055,0.066 -0.324,0.355 -0.387,0.43 h -0.011 v -0.087 c 0,-0.296 0,-0.351 0.004,-0.414 0.004,-0.07 0.02,-0.101 0.07,-0.109 0.02,-0.004 0.031,-0.008 0.05,-0.008 0.016,0 0.028,-0.004 0.028,-0.02 0,-0.011 -0.015,-0.015 -0.039,-0.015 h -0.484 c -0.028,0 -0.043,0.004 -0.043,0.015 0,0.016 0.011,0.02 0.03,0.02 a 0.35,0.35 0 0 1 0.075,0.008 c 0.063,0.012 0.078,0.043 0.078,0.11 0.004,0.062 0.004,1.09 -0.004,1.171 -0.008,0.055 -0.015,0.098 -0.055,0.106 a 0.274,0.274 0 0 1 -0.066,0.008 c -0.023,0 -0.031,0.008 -0.031,0.015 0,0.016 0.015,0.02 0.039,0.02 h 0.5 c 0.02,0 0.035,-0.004 0.035,-0.02 0,-0.008 -0.008,-0.015 -0.023,-0.015 a 0.684,0.684 0 0 1 -0.09,-0.008 c -0.047,-0.008 -0.063,-0.051 -0.07,-0.106 -0.004,-0.082 -0.004,-0.238 -0.004,-0.414 v -0.18 h 0.011 l 0.02,0.032 c 0.039,0.054 0.402,0.504 0.484,0.582 0.082,0.074 0.129,0.117 0.23,0.125 0.04,0.004 0.07,0.004 0.126,0.004 h 0.164 c 0.035,0 0.043,-0.004 0.043,-0.02 0,-0.011 -0.012,-0.015 -0.024,-0.015 a 0.283,0.283 0 0 1 -0.113,-0.028 0.858,0.858 0 0 1 -0.266,-0.21 12.033,12.033 0 0 1 -0.504,-0.575 c 0.063,-0.07 0.344,-0.363 0.403,-0.422 a 0.632,0.632 0 0 1 0.199,-0.148 0.407,0.407 0 0 1 0.105,-0.02"
       id="path5" />
    <path
       d="m 25.264,37.204 c 0,-0.336 0.211,-0.765 0.766,-0.765 0.461,0 0.75,0.28 0.75,0.73 0,0.445 -0.297,0.797 -0.77,0.797 -0.53,0 -0.746,-0.418 -0.746,-0.762 m 1.254,0.035 c 0,-0.437 -0.254,-0.707 -0.558,-0.707 -0.211,0 -0.438,0.125 -0.438,0.61 0,0.406 0.227,0.726 0.582,0.726 0.13,0 0.414,-0.066 0.414,-0.629 m -13.929,0.868 a 0.636,0.636 0 0 1 -0.442,-0.188 3.48,3.48 0 0 1 -0.465,-0.664 c 0.188,-0.164 0.243,-0.293 0.243,-0.438 A 0.36,0.36 0 0 0 11.8,36.547 0.586,0.586 0 0 0 11.46,36.466 h -0.516 c -0.027,0 -0.043,0.004 -0.043,0.016 0,0.015 0.012,0.019 0.031,0.019 0.028,0 0.059,0.004 0.075,0.004 0.062,0.016 0.074,0.047 0.078,0.113 0.004,0.063 0.004,0.118 0.004,0.414 v 0.344 c 0,0.176 0,0.332 -0.008,0.414 -0.008,0.055 -0.016,0.098 -0.055,0.106 a 0.274,0.274 0 0 1 -0.066,0.008 c -0.024,0 -0.032,0.008 -0.032,0.015 0,0.016 0.016,0.02 0.04,0.02 h 0.5 c 0.023,0 0.035,-0.004 0.035,-0.02 0,-0.008 -0.008,-0.015 -0.024,-0.015 a 0.82,0.82 0 0 1 -0.09,-0.008 c -0.054,-0.008 -0.066,-0.051 -0.07,-0.106 -0.012,-0.082 -0.012,-0.238 -0.012,-0.418 v -0.027 c 0,-0.012 0.008,-0.016 0.016,-0.016 l 0.16,0.004 c 0.016,0 0.027,0 0.035,0.012 0.02,0.047 0.114,0.266 0.2,0.398 0.082,0.13 0.16,0.235 0.246,0.301 a 0.57,0.57 0 0 0 0.328,0.125 c 0.16,0.016 0.273,0 0.304,-0.008 0.028,-0.008 0.059,-0.015 0.059,-0.035 0,-0.023 -0.031,-0.016 -0.066,-0.02 m -0.993,-0.898 c -0.03,0.024 -0.058,0.031 -0.128,0.031 a 0.435,0.435 0 0 1 -0.145,-0.02 c -0.012,-0.007 -0.016,-0.01 -0.016,-0.034 v -0.594 c 0,-0.016 0.004,-0.024 0.016,-0.027 a 0.543,0.543 0 0 1 0.102,-0.008 c 0.109,0 0.28,0.082 0.28,0.359 0,0.16 -0.054,0.25 -0.109,0.293 M 1.26,36.454 A 0.263,0.263 0 0 0 1.21,36.466 H 0.163 C 0.116,36.462 0.1,36.439 0.085,36.439 c -0.012,0 -0.016,0.011 -0.024,0.035 l -0.043,0.234 v 0.004 c 0,0.008 0.012,0.02 0.02,0.02 0.008,0 0.015,-0.008 0.02,-0.012 v -0.004 c 0.007,-0.016 0.015,-0.047 0.034,-0.078 0.028,-0.043 0.07,-0.05 0.18,-0.055 h 0.274 c 0,0 0,1.125 -0.008,1.207 -0.008,0.055 -0.016,0.098 -0.055,0.106 a 0.274,0.274 0 0 1 -0.067,0.008 c -0.023,0 -0.027,0.008 -0.027,0.015 0,0.016 0.012,0.02 0.035,0.02 h 0.524 c 0.02,0 0.035,-0.004 0.035,-0.02 0,-0.008 -0.008,-0.015 -0.031,-0.015 A 0.807,0.807 0 0 1 0.858,37.896 C 0.803,37.888 0.792,37.845 0.788,37.79 0.78,37.708 0.78,36.583 0.78,36.583 h 0.23 c 0.168,0.004 0.215,0.055 0.219,0.11 l 0.004,0.035 c 0,0.015 0.008,0.023 0.02,0.023 0.011,0 0.019,-0.008 0.019,-0.023 l 0.004,-0.235 c 0,-0.027 -0.004,-0.039 -0.016,-0.039 m 13.833,0 c -0.008,0 -0.02,0.004 -0.051,0.012 h -1.043 c -0.047,-0.004 -0.067,-0.027 -0.082,-0.027 -0.012,0 -0.016,0.011 -0.02,0.035 l -0.043,0.234 v 0.004 c 0,0.008 0.008,0.02 0.02,0.02 0.008,0 0.015,-0.008 0.015,-0.012 h 0.004 v -0.004 a 0.46,0.46 0 0 1 0.032,-0.078 c 0.027,-0.043 0.074,-0.05 0.18,-0.055 h 0.277 c 0,0 0,1.125 -0.012,1.207 -0.004,0.055 -0.016,0.098 -0.05,0.106 a 0.303,0.303 0 0 1 -0.067,0.008 c -0.024,0 -0.031,0.008 -0.031,0.015 0,0.016 0.011,0.02 0.035,0.02 h 0.527 c 0.02,0 0.035,-0.004 0.035,-0.02 0,-0.008 -0.011,-0.015 -0.03,-0.015 A 0.739,0.739 0 0 1 14.694,37.896 C 14.64,37.888 14.628,37.845 14.62,37.79 14.612,37.708 14.612,36.583 14.612,36.583 h 0.235 c 0.164,0.004 0.21,0.055 0.214,0.11 l 0.004,0.035 c 0,0.015 0.008,0.023 0.02,0.023 0.012,0 0.023,-0.008 0.023,-0.023 v -0.235 c 0,-0.027 0,-0.039 -0.015,-0.039 m 6.312,-0.496 c -0.008,0 -0.027,0.008 -0.066,0.016 H 19.94 c -0.058,-0.004 -0.086,-0.036 -0.105,-0.036 -0.016,0 -0.02,0.016 -0.028,0.051 l -0.054,0.309 -0.004,0.004 c 0,0.012 0.011,0.027 0.027,0.027 0.012,0 0.02,-0.008 0.024,-0.015 l 0.004,-0.004 a 0.455,0.455 0 0 1 0.043,-0.106 c 0.039,-0.055 0.093,-0.07 0.238,-0.074 h 0.37 c 0,0 0,1.504 -0.015,1.613 -0.008,0.074 -0.02,0.133 -0.07,0.14 a 0.273,0.273 0 0 1 -0.09,0.013 c -0.027,0 -0.039,0.008 -0.039,0.019 0,0.02 0.02,0.027 0.05,0.027 h 0.7 c 0.027,0 0.047,-0.008 0.047,-0.027 0,-0.012 -0.012,-0.02 -0.04,-0.02 A 0.626,0.626 0 0 1 20.874,37.884 C 20.8,37.876 20.784,37.817 20.776,37.744 20.765,37.634 20.765,36.13 20.765,36.13 h 0.308 c 0.223,0.008 0.285,0.078 0.293,0.144 l 0.004,0.055 c 0,0.016 0.012,0.024 0.027,0.024 0.012,0 0.028,-0.008 0.028,-0.024 v -0.32 c 0,-0.035 0,-0.051 -0.02,-0.051 M 3.98,37.661 a 0.019,0.019 0 0 0 -0.02,-0.02 c -0.008,0 -0.016,0.009 -0.02,0.016 -0.015,0.078 -0.062,0.133 -0.11,0.153 -0.046,0.023 -0.124,0.023 -0.175,0.023 -0.187,0 -0.191,-0.023 -0.195,-0.156 -0.004,-0.059 0,-0.457 0,-0.457 0,-0.012 0,-0.02 0.012,-0.02 0.043,0 0.226,0.004 0.261,0.008 0.067,0.008 0.094,0.035 0.106,0.074 0.004,0.024 0,0.051 0,0.067 0,0.016 0.011,0.023 0.023,0.023 0.008,0 0.016,-0.008 0.016,-0.02 0.004,0 0.004,-0.003 0.004,-0.003 l 0.023,-0.281 v -0.004 a 0.019,0.019 0 0 0 -0.02,-0.02 c -0.007,0 -0.011,0.004 -0.015,0.008 0,0.004 0,0.004 -0.004,0.004 0,0.004 -0.004,0.008 -0.008,0.016 -0.02,0.02 -0.047,0.023 -0.09,0.027 -0.043,0.004 -0.254,0.004 -0.297,0.004 -0.011,0 -0.011,-0.008 -0.011,-0.02 v -0.496 c 0,-0.011 0.004,-0.02 0.011,-0.02 0.04,0 0.235,0.005 0.266,0.009 0.09,0.012 0.11,0.039 0.12,0.07 0.013,0.024 0.009,0.067 0.009,0.078 0,0.011 0.012,0.02 0.02,0.02 0.011,0 0.019,-0.008 0.023,-0.016 0.004,-0.027 0.02,-0.25 0.02,-0.262 0,-0.008 0,-0.015 -0.012,-0.015 -0.008,0 -0.02,0.008 -0.028,0.008 A 0.375,0.375 0 0 1 3.807,36.467 H 3.081 c -0.031,0 -0.043,0.004 -0.043,0.015 0,0.016 0.011,0.02 0.031,0.02 0.027,0 0.059,0.004 0.074,0.008 0.063,0.012 0.074,0.043 0.078,0.11 0.004,0.062 0.004,1.09 -0.004,1.171 -0.008,0.055 -0.02,0.098 -0.054,0.106 a 0.274,0.274 0 0 1 -0.067,0.008 c -0.023,0 -0.031,0.008 -0.031,0.015 0,0.016 0.016,0.02 0.04,0.02 H 3.85 c 0.07,0 0.09,0.008 0.102,-0.043 l 0.027,-0.23 z m 5.945,-1.16 c 0.023,0 0.058,0.004 0.07,0.008 0.062,0.012 0.078,0.043 0.082,0.11 0.004,0.062 0.004,1.09 -0.008,1.171 -0.004,0.055 -0.016,0.098 -0.05,0.106 a 0.312,0.312 0 0 1 -0.071,0.008 c -0.02,0 -0.028,0.008 -0.028,0.015 0,0.016 0.012,0.02 0.036,0.02 h 0.746 c 0.074,0 0.093,0.008 0.101,-0.043 0.008,-0.04 0.031,-0.23 0.031,-0.23 v -0.005 a 0.019,0.019 0 0 0 -0.02,-0.02 c -0.007,0 -0.015,0.005 -0.019,0.017 -0.02,0.078 -0.062,0.132 -0.109,0.156 -0.05,0.02 -0.129,0.02 -0.176,0.02 -0.187,0 -0.195,-0.024 -0.199,-0.157 V 37.22 c 0,-0.012 0.004,-0.02 0.012,-0.02 0.047,0 0.23,0.004 0.261,0.008 0.07,0.008 0.098,0.036 0.106,0.075 0.008,0.027 0.004,0.05 0.004,0.07 0,0.012 0.008,0.02 0.02,0.02 0.011,0 0.019,-0.009 0.019,-0.02 l 0.027,-0.285 v -0.004 c 0,-0.012 -0.011,-0.02 -0.02,-0.02 -0.007,0 -0.01,0.004 -0.015,0.008 l -0.004,0.004 c 0,0.004 -0.004,0.008 -0.012,0.016 -0.015,0.02 -0.043,0.023 -0.085,0.027 -0.043,0.004 -0.258,0.004 -0.297,0.004 -0.012,0 -0.016,-0.008 -0.016,-0.02 v -0.495 c 0,-0.012 0.004,-0.02 0.016,-0.02 0.035,0 0.23,0.004 0.261,0.008 0.094,0.012 0.114,0.04 0.125,0.07 0.008,0.024 0.008,0.067 0.008,0.079 0,0.012 0.008,0.019 0.02,0.019 0.012,0 0.02,-0.008 0.02,-0.016 a 7.81,7.81 0 0 0 0.023,-0.261 c 0,-0.008 -0.004,-0.016 -0.012,-0.016 -0.008,0 -0.02,0.008 -0.031,0.008 a 0.309,0.309 0 0 1 -0.078,0.008 H 9.546 c -0.036,0 -0.051,0.004 -0.051,0.02 0,0.015 0.015,0.015 0.031,0.015 0.023,0 0.05,0.004 0.074,0.008 a 0.043,0.043 0 0 1 0.024,0.04 0.3,0.3 0 0 1 -0.016,0.07 C 9.565,36.748 9.323,37.377 9.241,37.592 H 9.237 L 8.917,36.706 A 0.567,0.567 0 0 1 8.874,36.557 c 0,-0.016 0.004,-0.031 0.019,-0.039 0.016,-0.012 0.043,-0.016 0.07,-0.016 0.02,0 0.028,-0.004 0.028,-0.02 0,-0.01 -0.02,-0.015 -0.043,-0.015 H 7.502 c -0.027,0 -0.047,0 -0.047,0.016 0,0.016 0.008,0.02 0.032,0.02 0.023,0 0.07,0 0.097,0.011 0.043,0.02 0.059,0.055 0.063,0.176 l 0.015,0.875 H 7.654 c -0.03,-0.031 -0.96,-1.082 -0.98,-1.106 -0.031,-0.035 -0.05,-0.058 -0.07,-0.058 -0.016,0 -0.024,0.027 -0.024,0.066 l -0.015,1.188 c 0,0.168 -0.008,0.226 -0.059,0.242 -0.023,0.008 -0.059,0.008 -0.082,0.008 -0.02,0 -0.031,0.004 -0.031,0.015 0,0.02 0.02,0.02 0.043,0.02 h 0.43 c 0.023,0 0.043,-0.004 0.043,-0.02 0,-0.011 -0.012,-0.015 -0.036,-0.015 -0.027,0 -0.062,0 -0.093,-0.012 C 6.74,37.878 6.717,37.827 6.713,37.674 l -0.02,-0.851 h 0.005 c 0.035,0.035 0.87,1.008 0.988,1.125 0.02,0.02 0.043,0.043 0.063,0.043 0.02,0 0.027,-0.02 0.027,-0.063 l 0.02,-1.254 c 0,-0.109 0.015,-0.152 0.066,-0.164 0.023,-0.008 0.05,-0.008 0.07,-0.008 0.02,0 0.063,0.004 0.082,0.008 0.04,0.008 0.059,0.043 0.063,0.11 0.004,0.062 0.004,1.097 -0.008,1.18 -0.004,0.058 -0.016,0.09 -0.051,0.097 a 0.303,0.303 0 0 1 -0.067,0.008 c -0.023,0 -0.03,0.008 -0.03,0.016 0,0.015 0.01,0.02 0.034,0.02 h 0.524 c 0.02,0 0.035,-0.005 0.035,-0.02 0,-0.008 -0.008,-0.016 -0.027,-0.016 A 0.683,0.683 0 0 1 8.393,37.897 C 8.334,37.889 8.323,37.854 8.319,37.803 A 39.167,39.167 0 0 1 8.315,36.62 c 0.004,-0.07 0.015,-0.102 0.066,-0.11 0.023,-0.003 0.035,-0.007 0.055,-0.007 0.015,0 0.035,0 0.062,0.008 0.067,0.019 0.102,0.039 0.14,0.148 l 0.47,1.191 c 0.035,0.09 0.047,0.118 0.07,0.118 0.023,0 0.035,-0.032 0.086,-0.145 0.039,-0.098 0.394,-0.937 0.469,-1.121 0.046,-0.125 0.078,-0.16 0.097,-0.176 0.035,-0.023 0.074,-0.023 0.094,-0.023 m 8.954,0.697 c 0.043,0 0.226,0 0.261,0.004 0.07,0.008 0.094,0.04 0.102,0.078 0.008,0.024 0.004,0.051 0.004,0.067 0,0.016 0.012,0.023 0.023,0.023 0.008,0 0.016,-0.008 0.016,-0.02 0.004,0 0.004,-0.003 0.004,-0.003 l 0.023,-0.282 v -0.004 a 0.019,0.019 0 0 0 -0.02,-0.02 c -0.007,0 -0.01,0.005 -0.015,0.009 l -0.004,0.004 c 0,0.004 -0.004,0.008 -0.008,0.016 -0.02,0.019 -0.047,0.023 -0.09,0.027 -0.043,0.004 -0.257,0.004 -0.296,0.004 -0.012,0 -0.016,-0.008 -0.016,-0.016 V 36.6 c 0,-0.023 0.008,-0.027 0.02,-0.027 l 0.285,0.004 c 0.07,0.004 0.101,0.03 0.117,0.058 0.011,0.028 0.011,0.074 0.011,0.086 0,0.012 0.008,0.024 0.02,0.024 0.008,0 0.016,-0.008 0.02,-0.02 v -0.004 c 0,0 0.023,-0.238 0.023,-0.254 0,-0.008 -0.004,-0.015 -0.012,-0.015 -0.008,0 -0.02,0.008 -0.031,0.011 -0.016,0.004 -0.04,0.004 -0.074,0.004 h -0.754 c -0.027,0 -0.043,0.004 -0.043,0.02 0,0.011 0.012,0.015 0.031,0.015 0.027,0 0.055,0.004 0.07,0.008 0.063,0.012 0.078,0.043 0.082,0.11 0.004,0.062 0.004,1.09 -0.008,1.172 -0.008,0.054 -0.015,0.097 -0.05,0.105 -0.02,0.004 -0.043,0.008 -0.067,0.008 -0.024,0 -0.031,0.008 -0.031,0.016 0,0.015 0.016,0.02 0.04,0.02 h 0.519 c 0.027,0 0.039,-0.005 0.039,-0.02 0,-0.008 -0.008,-0.016 -0.032,-0.016 a 0.739,0.739 0 0 1 -0.093,-0.008 c -0.055,-0.008 -0.067,-0.05 -0.07,-0.105 -0.012,-0.082 -0.012,-0.575 -0.012,-0.575 0,-0.011 0.004,-0.015 0.015,-0.015"
       id="path6" />
    <path
       d="m 12.76,37.052 -0.054,-0.043 c -0.153,-0.121 -0.195,-0.192 -0.195,-0.281 0,-0.114 0.085,-0.2 0.222,-0.2 0.121,0 0.172,0.059 0.203,0.094 0.035,0.05 0.047,0.113 0.047,0.129 v 0.02 c 0.004,0.003 0.004,0.007 0.004,0.007 l 0.004,0.004 v 0.004 c 0.004,0 0.008,0.004 0.012,0.004 0.012,0 0.023,-0.011 0.023,-0.019 l 0.004,-0.262 v -0.011 c 0,-0.016 -0.011,-0.024 -0.027,-0.028 -0.047,-0.011 -0.125,-0.03 -0.246,-0.03 -0.258,0 -0.43,0.151 -0.43,0.366 0,0.16 0.07,0.297 0.278,0.465 l 0.082,0.066 c 0.156,0.125 0.183,0.22 0.183,0.313 0,0.105 -0.082,0.223 -0.25,0.223 -0.113,0 -0.223,-0.051 -0.262,-0.196 a 0.358,0.358 0 0 1 -0.02,-0.097 v -0.02 c 0,-0.008 -0.007,-0.02 -0.019,-0.02 -0.011,0 -0.02,0.012 -0.02,0.02 l -0.01,0.29 c 0,0.042 0.007,0.054 0.034,0.066 a 0.6,0.6 0 0 0 0.274,0.05 c 0.097,0 0.199,-0.02 0.293,-0.078 a 0.406,0.406 0 0 0 0.176,-0.34 c 0,-0.187 -0.082,-0.316 -0.305,-0.496"
       id="path7" />
  </g>
</svg>
